<svg width="36" height="36" viewBox="0 0 36 36" fill="none" xmlns="http://www.w3.org/2000/svg">
<path fill-rule="evenodd" clip-rule="evenodd" d="M22.3455 4.26315C22.9665 4.26315 23.4705 4.76715 23.4705 5.38815C23.4705 6.00915 22.9665 6.51315 22.3455 6.51315H11.4435C7.6815 6.51315 5.25 9.09915 5.25 13.1042V25.2271C5.25 29.2846 7.623 31.8046 11.4435 31.8046H24.3495C28.1115 31.8046 30.543 29.2232 30.543 25.2271V14.6686C30.543 14.0477 31.047 13.5436 31.668 13.5436C32.289 13.5436 32.793 14.0477 32.793 14.6686V25.2271C32.793 30.5072 29.4 34.0546 24.3495 34.0546H11.4435C6.393 34.0546 3 30.5072 3 25.2271V13.1042C3 7.81665 6.393 4.26315 11.4435 4.26315H22.3455ZM25.5186 14.5078C26.0106 14.8888 26.1006 15.5953 25.7196 16.0858L21.3246 21.7558C21.1416 21.9928 20.8716 22.1474 20.5746 22.1833C20.2746 22.2239 19.9776 22.1369 19.7406 21.9524L15.5136 18.6314L11.7171 23.5648C11.4951 23.8528 11.1621 24.0044 10.8246 24.0044C10.5846 24.0044 10.3431 23.9279 10.1391 23.7719C9.6471 23.3924 9.5541 22.6859 9.9336 22.1939L14.4231 16.3589C14.6061 16.1203 14.8776 15.9659 15.1746 15.9284C15.4776 15.8894 15.7746 15.9734 16.0101 16.1609L20.2401 19.4834L23.9406 14.7088C24.3216 14.2154 25.0266 14.1238 25.5186 14.5078ZM29.9511 3C32.1621 3 33.9591 4.797 33.9591 7.008C33.9591 9.219 32.1621 11.0175 29.9511 11.0175C27.7416 11.0175 25.9431 9.219 25.9431 7.008C25.9431 4.797 27.7416 3 29.9511 3ZM29.9511 5.25C28.9821 5.25 28.1931 6.0375 28.1931 7.008C28.1931 7.977 28.9821 8.7675 29.9511 8.7675C30.9201 8.7675 31.7091 7.977 31.7091 7.008C31.7091 6.0375 30.9201 5.25 29.9511 5.25Z" fill="#FA4865"/>
</svg>
