<svg width="36" height="36" viewBox="0 0 36 36" fill="none" xmlns="http://www.w3.org/2000/svg">
<path fill-rule="evenodd" clip-rule="evenodd" d="M17.8155 21.684L17.9942 21.684L18.3901 21.6851C21.753 21.7031 29.631 22.0088 29.631 27.2055C29.631 32.0236 23.1609 32.6675 18.1281 32.6918L17.2409 32.6914C13.878 32.6734 6 32.3678 6 27.1725C6 22.2525 12.7425 21.684 17.8155 21.684ZM17.8155 23.934C11.469 23.934 8.25 25.0245 8.25 27.1725C8.25 29.3415 11.469 30.4425 17.8155 30.4425C24.162 30.4425 27.381 29.352 27.381 27.2055C27.381 25.0335 24.162 23.934 17.8155 23.934ZM17.8155 3C22.215 3 25.7925 6.579 25.7925 10.977C25.7925 15.375 22.215 18.954 17.8155 18.954H17.769C15.6405 18.9465 13.6455 18.111 12.15 16.605C10.653 15.0975 9.8325 13.0965 9.83995 10.9725C9.83995 6.579 13.4175 3 17.8155 3ZM17.8155 5.25C14.6595 5.25 12.09 7.8195 12.09 10.977C12.084 12.5055 12.672 13.938 13.7445 15.0195C14.8185 16.0995 16.2495 16.698 17.7735 16.704L17.8155 17.8155V16.704C20.973 16.704 23.5425 14.1345 23.5425 10.977C23.5425 7.8195 20.973 5.25 17.8155 5.25Z" fill="#FA4865"/>
</svg>
