<svg width="31" height="31" viewBox="0 0 31 31" fill="none" xmlns="http://www.w3.org/2000/svg">
<path fill-rule="evenodd" clip-rule="evenodd" d="M14.5697 0C22.6033 0 29.1379 6.53459 29.1379 14.5682C29.1379 18.3584 27.6833 21.8153 25.3031 24.4097L29.9867 29.0836C30.425 29.5219 30.4265 30.231 29.9882 30.6693C29.7698 30.8907 29.4811 31 29.1938 31C28.9081 31 28.6208 30.8908 28.4009 30.6723L23.6608 25.9454C21.1672 27.9423 18.0055 29.1379 14.5697 29.1379C6.53609 29.1379 0 22.6018 0 14.5682C0 6.53459 6.53609 0 14.5697 0ZM14.5697 2.24402C7.77329 2.24402 2.24402 7.77179 2.24402 14.5682C2.24402 21.3646 7.77329 26.8938 14.5697 26.8938C21.3646 26.8938 26.8939 21.3646 26.8939 14.5682C26.8939 7.77179 21.3646 2.24402 14.5697 2.24402Z" fill="#FA4865"/>
</svg>
