<svg width="36" height="36" viewBox="0 0 36 36" fill="none" xmlns="http://www.w3.org/2000/svg">
<path fill-rule="evenodd" clip-rule="evenodd" d="M15.221 7.80516C15.8705 8.31516 16.244 9.07566 16.244 9.89166C16.244 16.4692 16.466 18.2392 17.3735 18.9127C17.969 19.3522 18.785 19.3477 21.5345 19.2712C22.8125 19.2337 24.449 19.1857 26.5925 19.1857C27.4475 19.1857 28.253 19.5517 28.799 20.1892C29.306 20.7817 29.528 21.5557 29.411 22.3177C28.409 28.8052 22.889 33.5167 16.286 33.5167C8.95999 33.5167 3.00049 27.5572 3.00049 20.2327C3.00049 14.4247 7.39249 8.61666 12.791 7.28766C13.634 7.08216 14.54 7.27416 15.221 7.80516ZM13.4735 9.45516C13.4255 9.45516 13.3775 9.46116 13.3295 9.47316C8.87449 10.5697 5.25049 15.3967 5.25049 20.2327C5.25049 26.3167 10.2005 31.2667 16.286 31.2667C21.7715 31.2667 26.3555 27.3592 27.1865 21.9742C27.1925 21.9292 27.2135 21.7987 27.0905 21.6532C26.9735 21.5167 26.7875 21.4357 26.5925 21.4357C24.476 21.4357 22.8605 21.4837 21.599 21.5197C18.545 21.6112 17.282 21.6457 16.034 20.7202C14.2495 19.3981 14.0148 17.1756 13.9955 10.9387L13.994 9.89166C13.994 9.76566 13.94 9.66066 13.832 9.57666C13.7315 9.49716 13.604 9.45516 13.4735 9.45516ZM30.0761 5.60061C32.7131 8.23611 34.3871 11.6996 34.3391 14.4251C34.3211 15.4886 33.5486 16.3766 32.5046 16.5341C30.4676 16.8416 28.0826 16.9346 25.9721 16.9346C24.0071 16.9346 22.2776 16.8551 21.2831 16.7981C20.0321 16.7246 19.0361 15.7271 18.9641 14.4761C18.8471 12.4931 18.5936 7.45461 18.7736 3.55761C18.8231 2.42511 19.7381 1.52361 20.8571 1.50411C24.0626 1.41111 27.3701 2.89911 30.0761 5.60061ZM21.0491 3.75261H21.0161C20.8511 7.53111 21.0956 12.4121 21.2096 14.3456C21.2156 14.4611 21.2996 14.5451 21.4136 14.5511C22.9556 14.6396 28.2686 14.8856 32.0891 14.3231C32.0981 12.2171 30.6566 9.36111 28.4861 7.19211C26.2601 4.96911 23.6261 3.75261 21.0491 3.75261Z" fill="#FA4865"/>
</svg>
