<svg width="26" height="62" viewBox="0 0 26 62" fill="none" xmlns="http://www.w3.org/2000/svg">
<path fill-rule="evenodd" clip-rule="evenodd" d="M7.60481 4.36015C6.18047 2.10132 5.56214 0 5.56214 0C5.56214 0 7.43388 0.628384 9.73125 2.45991C11.8326 4.36518 14.264 7.68304 14.0931 12.0248C10.9512 9.50117 8.87833 6.7966 7.60648 4.36015H7.60481ZM19.5994 29.4402L19.7217 31.2131C19.7435 31.5918 19.4871 31.927 19.1101 31.9353C18.7482 31.9655 18.4231 31.6588 18.4013 31.2935L18.279 29.5257C15.6984 27.9673 13.9272 25.742 12.8129 23.758L11.3868 20.9562C11.0936 20.2021 10.9026 19.7463 10.9026 19.7463C10.9026 19.7463 12.5799 19.9089 14.6444 21.2561C16.1039 22.3705 18.0678 24.4064 18.7951 27.6472C18.7974 27.6472 18.7994 27.6462 18.8015 27.645C18.8039 27.6437 18.8066 27.6422 18.8102 27.6422C18.785 24.2992 19.1889 21.6399 20.0234 19.5268C20.7841 17.0301 21.8834 15.4867 21.8834 15.4867L22.3425 17.0719C22.5855 18.064 22.9022 19.4229 22.8084 21.0132C22.7883 23.8937 22.0643 27.2719 19.5994 29.4402ZM17.9868 20.2592C18.0175 20.3447 18.0306 20.4355 18.0251 20.5262C18.0197 20.6168 17.9958 20.7055 17.9551 20.7866C17.9143 20.8678 17.8575 20.9399 17.7881 20.9984C17.7186 21.057 17.638 21.1008 17.5511 21.1272C17.2093 21.2361 16.854 21.0149 16.7233 20.6681L16.167 19.0359C13.4976 18.2342 11.7102 16.5142 10.174 15.0359L10.1733 15.0353C10.0916 14.9566 10.0105 14.8786 9.93007 14.8015C9.24698 14.0723 8.64055 13.275 8.12032 12.422C7.68799 11.8003 7.4048 11.4333 7.4048 11.4333C7.4048 11.4333 9.14417 11.12 11.1416 12.0751C12.8072 12.8024 14.9018 14.2787 16.2692 17.0469L16.3078 17.0352C15.6174 13.9754 15.5956 11.4367 15.8754 9.33369C16.3111 6.73972 16.906 5.13944 16.906 5.13944C17.1355 4.91322 21.3382 13.2967 17.4573 18.679L17.9868 20.2592ZM14.1193 51.3885C13.6317 52.0973 12.7251 53.3876 12.6547 53.3189C12.3799 53.6038 11.9442 53.6356 11.6862 53.3759C11.5605 53.25 11.4886 53.0804 11.4854 52.9025C11.4823 52.7247 11.5483 52.5526 11.6694 52.4224C11.7398 52.4727 12.6497 51.1874 13.1089 50.5322C11.3019 44.8804 11.7235 40.0946 11.9114 37.9606C11.9701 37.2943 12.006 36.8865 11.9442 36.7916C11.9442 36.7916 13.8311 37.8238 14.86 40.1932C15.9592 42.261 16.5591 46.1 14.2517 49.9525C14.2589 49.9575 14.2658 49.9613 14.2724 49.965C14.2769 49.9674 14.2811 49.9698 14.2853 49.9724C14.2893 49.9749 14.2932 49.9777 14.2969 49.9809C14.3123 49.9912 14.3226 50.0051 14.3329 50.019C14.3369 50.0244 14.3409 50.0298 14.3452 50.035C14.348 50.0383 14.3508 50.0416 14.3539 50.0446C17.0434 46.467 19.3357 43.8764 21.4756 41.8505C23.6323 39.958 25.1925 38.8544 25.6051 38.5625C25.6766 38.512 25.7137 38.4858 25.7134 38.484C25.8525 38.4287 25.3498 41.8186 23.3172 45.4197C21.4454 48.7108 17.9298 51.536 14.1193 51.3868V51.3885ZM1.55664 61.9018L5.84138 59.2156C9.53796 61.0321 14.0288 59.5592 17.2562 57.0875C18.7796 55.9023 19.9221 54.4942 20.7971 53.4158C20.8846 53.3079 20.9694 53.2034 21.0516 53.1027C21.9398 51.9532 22.2414 51.1086 22.2414 51.1086C22.2414 51.1086 20.0228 51.6013 16.7853 52.7994C16.361 52.991 15.9185 53.1868 15.4591 53.3901C12.885 54.5292 9.77827 55.9039 6.34577 58.0979C6.32971 58.0727 6.31052 58.0546 6.2914 58.0365C6.28259 58.0281 6.27379 58.0198 6.26533 58.0108C10.1496 55.0582 11.3192 51.1321 10.9053 48.4326C10.7143 45.5621 9.26649 43.8931 9.26649 43.8931C9.29087 43.9186 9.1875 44.1273 9.00629 44.4932C8.6519 45.2087 7.99979 46.5252 7.42323 48.2482C6.48317 50.5925 5.37889 53.9255 5.19456 58.0242L0.968475 60.6852C0.663499 60.8897 0.504312 61.265 0.660151 61.627C0.810963 61.952 1.23156 62.1196 1.55664 61.9018ZM18.1963 43.4323L18.8448 41.0461C22.5849 39.6687 24.4449 35.6437 25.2962 32.1013C25.5944 30.258 25.6782 28.5136 25.6715 27.2669C25.705 26.0118 25.5174 25.2611 25.5174 25.2611C25.5174 25.2611 23.9858 26.8346 22.3788 29.5944C21.0064 32.0711 19.6575 35.3739 18.5247 39.7056C18.4905 39.6995 18.4564 39.7031 18.4216 39.7069C18.4086 39.7083 18.3955 39.7097 18.3823 39.7106C19.0676 35.2667 17.2914 31.9873 15.5621 30.2496C13.6987 28.2388 11.7834 27.7361 11.7834 27.7361C11.8178 27.7453 11.8437 27.9307 11.8887 28.2538C11.9994 29.0475 12.2259 30.6719 12.9798 32.5537C13.6786 34.9784 15.1934 37.9511 17.5712 40.6976L16.9479 42.9916C16.9016 43.1706 16.921 43.3602 17.0025 43.5262C17.0839 43.6922 17.2221 43.8235 17.3919 43.8965C17.7338 44.0339 18.0907 43.8093 18.1963 43.4323Z" fill="#D0D0D0"/>
</svg>
