<svg width="26" height="63" viewBox="0 0 26 63" fill="none" xmlns="http://www.w3.org/2000/svg">
<path fill-rule="evenodd" clip-rule="evenodd" d="M18.9706 4.42798C20.3998 2.16139 21.0203 0.0528564 21.0203 0.0528564C21.0203 0.0528564 19.1421 0.683399 16.8369 2.52122C14.7283 4.43303 12.2885 7.76229 12.46 12.1189C15.6127 9.58666 17.6927 6.87281 18.9689 4.42798H18.9706ZM6.93481 29.5942L6.81205 31.3732C6.79019 31.7532 7.04746 32.0895 7.42579 32.0979C7.78898 32.1281 8.11518 31.8204 8.13704 31.4539L8.25978 29.68C10.8492 28.1162 12.6265 25.8832 13.7447 23.8924L15.1756 21.081C15.4698 20.3244 15.6615 19.867 15.6615 19.867C15.6615 19.867 13.9784 20.0301 11.9068 21.382C10.4423 22.5002 8.47165 24.5431 7.7419 27.7951C7.73956 27.7951 7.73758 27.794 7.73546 27.7928C7.73301 27.7915 7.73037 27.79 7.72677 27.79C7.75199 24.4355 7.34675 21.7671 6.50939 19.6468C5.74602 17.1414 4.643 15.5928 4.643 15.5928L4.18228 17.1834C3.93847 18.1789 3.62067 19.5425 3.71483 21.1382C3.73501 24.0286 4.4614 27.4184 6.93481 29.5942ZM8.55296 20.3816C8.52212 20.4674 8.50904 20.5585 8.51451 20.6495C8.51998 20.7405 8.54389 20.8294 8.58477 20.9109C8.62566 20.9923 8.68268 21.0646 8.75236 21.1234C8.82204 21.1821 8.90294 21.2261 8.99014 21.2526C9.33315 21.3619 9.68961 21.1399 9.82076 20.7919L10.379 19.1542C13.0575 18.3496 14.8511 16.6238 16.3926 15.1404L16.3926 15.1404C16.4749 15.0612 16.5564 14.9827 16.6374 14.9051C17.3228 14.1735 17.9313 13.3734 18.4533 12.5175C18.8871 11.8937 19.1713 11.5254 19.1713 11.5254C19.1713 11.5254 17.426 11.211 15.4217 12.1694C13.7503 12.8992 11.6485 14.3805 10.2764 17.1583L10.2378 17.1465C10.9305 14.0762 10.9524 11.5288 10.6716 9.41858C10.2344 6.8157 9.63749 5.20992 9.63749 5.20992C9.40713 4.98292 5.19007 13.3952 9.0843 18.796L8.55296 20.3816ZM12.4337 51.6179C12.923 52.3291 13.8327 53.6238 13.9033 53.5549C14.1791 53.8407 14.6163 53.8727 14.8752 53.6121C15.0013 53.4858 15.0735 53.3155 15.0766 53.1371C15.0798 52.9586 15.0136 52.786 14.892 52.6553C14.8214 52.7058 13.9084 51.4161 13.4477 50.7586C15.2608 45.0874 14.8378 40.2851 14.6492 38.1438C14.5903 37.4752 14.5542 37.066 14.6163 36.9708C14.6163 36.9708 12.7229 38.0065 11.6905 40.3841C10.5875 42.459 9.98554 46.3112 12.3009 50.1769C12.2936 50.1819 12.2867 50.1858 12.2801 50.1894C12.2713 50.1942 12.2631 50.1987 12.2555 50.2054C12.2401 50.2157 12.2297 50.2297 12.2194 50.2436C12.2128 50.2526 12.2062 50.2615 12.1983 50.2693C9.49961 46.6794 7.19939 44.0799 5.05218 42.0471C2.88806 40.1481 1.32252 39.0407 0.908453 38.7478L0.90831 38.7477C0.836679 38.697 0.799555 38.6708 0.799803 38.669C0.660244 38.6135 1.16468 42.0151 3.20427 45.6285C5.08245 48.9309 8.61012 51.7658 12.4337 51.6162V51.6179ZM25.0395 62.1672L20.7401 59.4718C17.0308 61.2945 12.5245 59.8165 9.28606 57.3364C7.75748 56.1472 6.61104 54.7342 5.73305 53.6521C5.64525 53.5439 5.56013 53.439 5.47759 53.3379C4.58642 52.1845 4.28376 51.337 4.28376 51.337C4.28376 51.337 6.51 51.8314 9.75856 53.0336C10.1843 53.2258 10.6283 53.4223 11.0893 53.6263C13.6723 54.7693 16.7897 56.1488 20.234 58.3503C20.2501 58.325 20.2693 58.3068 20.2885 58.2886C20.2974 58.2803 20.3062 58.2719 20.3147 58.2629C16.4171 55.3002 15.2434 51.3605 15.6588 48.6517C15.8504 45.7714 17.3032 44.0967 17.3032 44.0967C17.2788 44.1223 17.3825 44.3317 17.5643 44.6988C17.9199 45.4168 18.5743 46.7379 19.1528 48.4668C20.0961 50.8191 21.2042 54.1635 21.3891 58.2763L25.6297 60.9465C25.9358 61.1516 26.0955 61.5283 25.9391 61.8915C25.7878 62.2177 25.3657 62.3858 25.0395 62.1672ZM8.34278 43.6343L7.69205 41.2399C3.93906 39.8578 2.07266 35.8189 1.21848 32.2644C0.919188 30.4148 0.835117 28.6644 0.841843 27.4134C0.808214 26.154 0.996529 25.4007 0.996529 25.4007C0.996529 25.4007 2.53337 26.9796 4.14588 29.7489C5.52299 32.2341 6.87656 35.5482 8.01321 39.8948C8.04749 39.8886 8.08177 39.8923 8.1167 39.8961C8.12974 39.8975 8.14288 39.8989 8.15614 39.8998C7.46842 35.4406 9.25076 32.15 10.986 30.4064C12.8558 28.3886 14.7777 27.8842 14.7777 27.8842C14.7431 27.8934 14.7172 28.0795 14.672 28.4037C14.5609 29.2001 14.3336 30.8301 13.5771 32.7183C12.876 35.1514 11.3559 38.1343 8.96996 40.8902L9.59546 43.1921C9.64184 43.3717 9.6224 43.562 9.54067 43.7285C9.45894 43.8951 9.32032 44.0268 9.14986 44.1001C8.80685 44.2379 8.44871 44.0126 8.34278 43.6343Z" fill="#D0D0D0"/>
</svg>
